<?xml version="1.0" encoding="UTF-8"?>
<svg id="Layer_2" data-name="Layer 2" xmlns="http://www.w3.org/2000/svg" viewBox="0 0 172.75 690.95">
  <g id="Layer_1-2" data-name="Layer 1">
    <path d="M172.11,61.66c-2.78,41.45-13.41,130.62-31.86,267.5-7.33,57.12-18.47,105.02-33.44,143.67-13.25,33.44-24.56,50.16-33.97,50.16-3.84,0-5.75-4.17-5.75-12.53,0-5.56,1.73-21.94,5.23-49.11,3.83-32.75,6.78-62.88,8.88-90.39,2.44-57.81,6.78-136.7,13.06-236.67C101.93,44.77,121.61,0,153.32,0c15.31,0,21.58,20.56,18.8,61.66Z"/>
    <path d="M138,621.95c0,46-25.67,69-77,69-9.34,0-27-6-53-18-5.34-10-8-21-8-33,0-20,5.66-33.33,17-40,8-5.33,22-8,42-8,52.66,0,79,10,79,30Z"/>
  </g>
</svg>